0
SECTION
2
HEADER
9
$INSUNITS
70
4
9
$ACADVER
1
AC1014
9
$HANDSEED
5
FFFF
0
ENDSEC
0
SECTION
2
TABLES
0
TABLE
2
VPORT
5
8
100
AcDbSymbolTable
0
ENDTAB
0
TABLE
2
LTYPE
5
5
100
AcDbSymbolTable
0
LTYPE
5
14
100
AcDbSymbolTableRecord
100
AcDbLinetypeTableRecord
2
BYBLOCK
70
0
0
LTYPE
5
15
100
AcDbSymbolTableRecord
100
AcDbLinetypeTableRecord
2
BYLAYER
70
0
0
ENDTAB
0
TABLE
2
LAYER
5
2
100
AcDbSymbolTable
70
2
0
LAYER
5
50
100
AcDbSymbolTableRecord
100
AcDbLayerTableRecord
2
0
70
0
6
CONTINUOUS
0
ENDTAB
0
TABLE
2
STYLE
5
3
100
AcDbSymbolTable
70
1
0
STYLE
5
11
100
AcDbSymbolTableRecord
100
AcDbTextStyleTableRecord
2
STANDARD
70
0
0
ENDTAB
0
TABLE
2
VIEW
5
6
100
AcDbSymbolTable
70
0
0
ENDTAB
0
TABLE
2
UCS
5
7
100
AcDbSymbolTable
70
0
0
ENDTAB
0
TABLE
2
APPID
5
9
100
AcDbSymbolTable
70
2
0
APPID
5
12
100
AcDbSymbolTableRecord
100
AcDbRegAppTableRecord
2
ACAD
70
0
0
ENDTAB
0
TABLE
2
DIMSTYLE
5
A
100
AcDbSymbolTable
70
1
0
ENDTAB
0
TABLE
2
BLOCK_RECORD
5
1
100
AcDbSymbolTable
70
1
0
BLOCK_RECORD
5
1F
100
AcDbSymbolTableRecord
100
AcDbBlockTableRecord
2
*MODEL_SPACE
0
BLOCK_RECORD
5
1B
100
AcDbSymbolTableRecord
100
AcDbBlockTableRecord
2
*PAPER_SPACE
0
ENDTAB
0
ENDSEC
0
SECTION
2
BLOCKS
0
BLOCK
5
20
100
AcDbEntity
100
AcDbBlockBegin
2
*MODEL_SPACE
0
ENDBLK
5
21
100
AcDbEntity
100
AcDbBlockEnd
0
BLOCK
5
1C
100
AcDbEntity
100
AcDbBlockBegin
2
*PAPER_SPACE
0
ENDBLK
5
1D
100
AcDbEntity
100
AcDbBlockEnd
0
ENDSEC
0
SECTION
2
ENTITIES
0
LWPOLYLINE
5
100
100
AcDbEntity
8
0
100
AcDbPolyline
90
22
70
1
43
0.0
10
106.8
20
-77.437500000000014
42
-0.41421356237310025
10
107.30000000000001
20
-77.9375
42
0.41421356237310025
10
107.80000000000001
20
-78.4375
10
120.8
20
-78.4375
42
0.41421356237310542
10
121.30000000000001
20
-77.9375
42
-0.41421356237307944
10
121.80000000000001
20
-77.437500000000014
10
126.82500000000002
20
-77.437500000000014
42
0.41421356237310025
10
127.32500000000002
20
-76.9375
10
127.32500000000002
20
-62.9375
42
0.41421356237309503
10
126.82500000000002
20
-62.4375
10
120.82500000000002
20
-62.4375
42
0.41421356237309503
10
120.325
20
-62.937499999999993
10
120.32499999999999
20
-63.937500000000007
42
-0.41421356237307422
10
119.825
20
-64.4375
10
108.77500000000003
20
-64.437500000000014
42
-0.41421356237307422
10
108.27500000000002
20
-63.937500000000007
10
108.27500000000002
20
-62.9375
42
0.41421356237307422
10
107.77500000000002
20
-62.437499999999986
10
101.77500000000002
20
-62.4375
42
0.4142135623730846
10
101.27500000000001
20
-62.937499999999993
10
101.27500000000001
20
-76.9375
42
0.41421356237309503
10
101.77500000000002
20
-77.4375
0
LWPOLYLINE
5
101
100
AcDbEntity
8
0
100
AcDbPolyline
90
8
70
1
43
0.0
10
204.93125000000003
20
-22.074999999999999
42
-0.41421356237305079
10
205.43125000000003
20
-21.575000000000003
10
218.43125000000001
20
-21.574999999999982
42
-0.41421356237310281
10
218.93125000000001
20
-22.074999999999999
10
218.93125000000001
20
-35.075000000000003
42
-0.41421356237304563
10
218.43125000000001
20
-35.575000000000003
10
205.43125000000003
20
-35.575000000000017
42
-0.41421356237310025
10
204.93125000000003
20
-35.075000000000003
0
LWPOLYLINE
5
102
100
AcDbEntity
8
0
100
AcDbPolyline
90
8
70
1
43
0.0
10
178.73750000000001
20
-22.074999999999999
10
178.73750000000001
20
-35.075000000000003
42
0.41421356237313145
10
179.23750000000001
20
-35.575000000000003
10
192.23750000000001
20
-35.575000000000003
42
0.41421356237304563
10
192.73750000000004
20
-35.075000000000003
10
192.73750000000004
20
-22.074999999999999
42
0.41421356237310281
10
192.23750000000001
20
-21.575000000000003
10
179.23750000000001
20
-21.575000000000003
42
0.41421356237308204
0
CIRCLE
5
103
100
AcDbEntity
8
0
100
AcDbCircle
10
2.024999999999999
20
-84.937500000000028
30
0
40
1.2
210
0
220
-0
230
1
0
LWPOLYLINE
5
104
100
AcDbEntity
8
0
100
AcDbPolyline
90
8
70
1
43
0.0
10
131.11250000000001
20
-41.125
42
-0.41421356237308982
10
131.61250000000001
20
-40.625
10
144.61250000000001
20
-40.624999999999993
42
-0.41421356237307422
10
145.11250000000001
20
-41.125
10
145.11250000000001
20
-54.125000000000007
42
-0.41421356237310025
10
144.61250000000001
20
-54.625
10
131.61250000000001
20
-54.625000000000014
42
-0.41421356237309503
10
131.11250000000001
20
-54.125000000000007
0
LWPOLYLINE
5
105
100
AcDbEntity
8
0
100
AcDbPolyline
90
8
70
1
43
0.0
10
135.87500000000003
20
-64.9375
42
-0.41421356237310542
10
136.375
20
-64.4375
10
149.375
20
-64.437499999999986
42
-0.41421356237310025
10
149.875
20
-64.9375
10
149.875
20
-77.9375
42
-0.41421356237309503
10
149.375
20
-78.4375
10
136.375
20
-78.437500000000014
42
-0.41421356237307422
10
135.875
20
-77.9375
0
LWPOLYLINE
5
106
100
AcDbEntity
8
0
100
AcDbPolyline
90
8
70
1
43
0.0
10
194.61875000000003
20
-59.674999999999997
42
-0.41421356237313667
10
195.11875000000003
20
-60.174999999999997
10
195.11875000000006
20
-73.174999999999983
42
-0.41421356237307944
10
194.61875000000003
20
-73.674999999999997
10
181.61875000000003
20
-73.674999999999983
42
-0.41421356237312101
10
181.11875000000001
20
-73.174999999999997
10
181.11875000000003
20
-60.174999999999997
42
-0.4142135623730222
10
181.61875000000003
20
-59.675000000000004
0
LWPOLYLINE
5
107
100
AcDbEntity
8
0
100
AcDbPolyline
90
8
70
1
43
0.0
10
33.481250000000003
20
-60.174999999999997
42
-0.41421356237309764
10
33.981250000000003
20
-59.675000000000004
10
46.98125000000001
20
-59.675000000000004
42
-0.41421356237308982
10
47.481250000000003
20
-60.174999999999997
10
47.481250000000003
20
-73.174999999999983
42
-0.41421356237310025
10
46.981250000000003
20
-73.674999999999997
10
33.981250000000003
20
-73.674999999999997
42
-0.41421356237309503
10
33.481250000000003
20
-73.174999999999997
0
LWPOLYLINE
5
108
100
AcDbEntity
8
0
100
AcDbPolyline
90
8
70
1
43
0.0
10
204.93125000000003
20
-60.174999999999997
10
204.93125000000003
20
-73.174999999999983
42
0.41421356237312623
10
205.43125000000003
20
-73.674999999999997
10
218.43125000000001
20
-73.674999999999997
42
0.41421356237302737
10
218.93125000000001
20
-73.174999999999983
10
218.93125000000001
20
-60.174999999999997
42
0.41421356237312623
10
218.43125000000001
20
-59.675000000000004
10
205.43125000000003
20
-59.675000000000004
42
0.4142135623730222
0
LWPOLYLINE
5
109
100
AcDbEntity
8
0
100
AcDbPolyline
90
8
70
1
43
0.0
10
140.63749999999999
20
-22.074999999999999
42
-0.41421356237310802
10
141.13749999999999
20
-21.575000000000003
10
154.13749999999999
20
-21.574999999999992
42
-0.41421356237309503
10
154.63750000000002
20
-22.074999999999999
10
154.63750000000002
20
-35.075000000000003
42
-0.41421356237310542
10
154.13749999999999
20
-35.575000000000003
10
141.13749999999999
20
-35.575000000000003
42
-0.41421356237309243
10
140.63749999999999
20
-35.075000000000003
0
LWPOLYLINE
5
110
100
AcDbEntity
8
0
100
AcDbPolyline
90
8
70
1
43
0.0
10
209.69374999999997
20
-41.125
42
-0.41421356237307422
10
210.19374999999999
20
-40.625
10
223.19375000000002
20
-40.625000000000014
42
-0.41421356237312101
10
223.69375000000002
20
-41.125
10
223.69374999999997
20
-54.125000000000007
42
-0.4142135623730222
10
223.19375000000002
20
-54.625
10
210.19374999999999
20
-54.625
42
-0.41421356237313145
10
209.69374999999999
20
-54.125000000000007
0
LWPOLYLINE
5
111
100
AcDbEntity
8
0
100
AcDbPolyline
90
8
70
1
43
0.0
10
68.412499999999994
20
-40.625
42
-0.41421356237309503
10
68.912499999999994
20
-41.125
10
68.912499999999994
20
-54.125000000000007
42
-0.41421356237309503
10
68.412499999999994
20
-54.625
10
55.412500000000016
20
-54.625
42
-0.41421356237310025
10
54.912500000000009
20
-54.125000000000007
10
54.912500000000009
20
-41.125
42
-0.41421356237309503
10
55.412500000000009
20
-40.625
0
LWPOLYLINE
5
112
100
AcDbEntity
8
0
100
AcDbPolyline
90
8
70
1
43
0.0
10
173.1875
20
-21.574999999999982
42
-0.41421356237310281
10
173.68750000000003
20
-22.074999999999999
10
173.68750000000003
20
-35.075000000000003
42
-0.41421356237304563
10
173.1875
20
-35.575000000000003
10
160.1875
20
-35.575000000000003
42
-0.41421356237309243
10
159.6875
20
-35.075000000000003
10
159.68749999999997
20
-22.074999999999999
42
-0.41421356237311846
10
160.1875
20
-21.575000000000003
0
LWPOLYLINE
5
113
100
AcDbEntity
8
0
100
AcDbPolyline
90
8
70
1
43
0.0
10
73.962500000000006
20
-41.125
42
-0.41421356237309503
10
74.462500000000006
20
-40.625
10
87.46250000000002
20
-40.624999999999993
42
-0.41421356237307422
10
87.96250000000002
20
-41.125
10
87.962500000000006
20
-54.125000000000007
42
-0.41421356237310025
10
87.46250000000002
20
-54.625
10
74.462500000000006
20
-54.625
42
-0.41421356237309503
10
73.962500000000006
20
-54.125000000000007
0
LWPOLYLINE
5
114
100
AcDbEntity
8
0
100
AcDbPolyline
90
8
70
1
43
0.0
10
169.21249999999998
20
-41.125
42
-0.41421356237307422
10
169.71250000000001
20
-40.625
10
182.71250000000003
20
-40.625000000000014
42
-0.41421356237312101
10
183.21250000000003
20
-41.125
10
183.21249999999998
20
-54.125000000000007
42
-0.4142135623730222
10
182.71250000000003
20
-54.625
10
169.71250000000001
20
-54.625
42
-0.41421356237313145
10
169.21250000000001
20
-54.125000000000007
0
LWPOLYLINE
5
115
100
AcDbEntity
8
0
100
AcDbPolyline
90
8
70
1
43
0.0
10
150.16249999999999
20
-41.125
42
-0.41421356237308982
10
150.66249999999999
20
-40.625
10
163.66250000000002
20
-40.625000000000014
42
-0.41421356237312101
10
164.16250000000002
20
-41.125
10
164.16249999999997
20
-54.125000000000007
42
-0.4142135623730222
10
163.66250000000002
20
-54.625
10
150.66249999999999
20
-54.625000000000014
42
-0.41421356237309503
10
150.16249999999999
20
-54.125000000000007
0
LWPOLYLINE
5
116
100
AcDbEntity
8
0
100
AcDbPolyline
90
8
70
1
43
0.0
10
93.012499999999989
20
-41.125
42
-0.41421356237308982
10
93.512500000000003
20
-40.625
10
106.51250000000002
20
-40.624999999999993
42
-0.41421356237309503
10
107.01250000000002
20
-41.125
10
107.01250000000002
20
-54.125000000000007
42
-0.41421356237308982
10
106.51250000000002
20
-54.625
10
93.512500000000003
20
-54.625000000000014
42
-0.41421356237309503
10
93.012499999999989
20
-54.125000000000007
0
LWPOLYLINE
5
117
100
AcDbEntity
8
0
100
AcDbPolyline
90
8
70
1
43
0.0
10
188.26250000000002
20
-41.125
42
-0.4142135623730222
10
188.76249999999999
20
-40.625
10
201.76249999999999
20
-40.625
42
-0.41421356237313145
10
202.26249999999999
20
-41.125
10
202.26250000000005
20
-54.125000000000007
42
-0.41421356237307422
10
201.76249999999999
20
-54.625
10
188.76249999999999
20
-54.624999999999986
42
-0.41421356237312101
10
188.26249999999999
20
-54.125000000000007
0
LWPOLYLINE
5
118
100
AcDbEntity
8
0
100
AcDbPolyline
90
8
70
1
43
0.0
10
78.724999999999994
20
-3.0249999999999999
42
-0.41421356237309664
10
79.224999999999994
20
-2.5249999999999999
10
92.224999999999994
20
-2.5249999999999941
42
-0.41421356237309437
10
92.725000000000009
20
-3.0249999999999999
10
92.725000000000009
20
-16.024999999999999
42
-0.41421356237310675
10
92.224999999999994
20
-16.525000000000002
10
79.224999999999994
20
-16.525000000000002
42
-0.41421356237309764
10
78.724999999999994
20
-16.024999999999999
0
LWPOLYLINE
5
119
100
AcDbEntity
8
0
100
AcDbPolyline
90
8
70
1
43
0.0
10
135.875
20
-3.0249999999999999
42
-0.41421356237307422
10
136.375
20
-2.5249999999999999
10
149.375
20
-2.5249999999999941
42
-0.41421356237309437
10
149.875
20
-3.0249999999999999
10
149.875
20
-16.024999999999999
42
-0.41421356237310675
10
149.375
20
-16.525000000000002
10
136.375
20
-16.525000000000009
42
-0.41421356237307555
10
135.875
20
-16.024999999999999
0
LWPOLYLINE
5
120
100
AcDbEntity
8
0
100
AcDbPolyline
90
8
70
1
43
0.0
10
158.42500000000001
20
-62.9375
42
-0.41421356237308982
10
158.92500000000001
20
-62.4375
10
164.92500000000004
20
-62.437500000000057
42
-0.41421356237312101
10
165.42500000000001
20
-62.9375
10
165.42500000000004
20
-76.9375
42
-0.41421356237313667
10
164.92500000000004
20
-77.437500000000014
10
158.92500000000001
20
-77.437500000000014
42
-0.41421356237309503
10
158.42500000000001
20
-76.9375
0
LWPOLYLINE
5
121
100
AcDbEntity
8
0
100
AcDbPolyline
90
8
70
1
43
0.0
10
9.6687499999999975
20
-60.174999999999997
42
-0.41421356237309764
10
10.168749999999999
20
-59.675000000000004
10
23.168749999999996
20
-59.675000000000011
42
-0.41421356237310025
10
23.668749999999999
20
-60.174999999999997
10
23.668749999999999
20
-73.174999999999983
42
-0.41421356237310025
10
23.168749999999999
20
-73.674999999999997
10
10.168749999999989
20
-73.674999999999997
42
-0.41421356237308721
10
9.6687499999999993
20
-73.174999999999997
0
LWPOLYLINE
5
122
100
AcDbEntity
8
0
100
AcDbPolyline
90
8
70
1
43
0.0
10
78.724999999999994
20
-64.9375
42
-0.41421356237310542
10
79.224999999999994
20
-64.4375
10
92.224999999999994
20
-64.437499999999986
42
-0.41421356237310025
10
92.725000000000009
20
-64.9375
10
92.725000000000009
20
-77.9375
42
-0.41421356237309503
10
92.224999999999994
20
-78.4375
10
79.224999999999994
20
-78.4375
42
-0.41421356237309503
10
78.724999999999994
20
-77.9375
0
LWPOLYLINE
5
123
100
AcDbEntity
8
0
100
AcDbPolyline
90
8
70
1
43
0.0
10
69.674999999999997
20
-62.4375
42
-0.41421356237309503
10
70.174999999999997
20
-62.9375
10
70.175000000000011
20
-76.9375
42
-0.41421356237311063
10
69.674999999999997
20
-77.437500000000014
10
63.674999999999997
20
-77.4375
42
-0.41421356237309503
10
63.174999999999997
20
-76.9375
10
63.174999999999997
20
-62.937499999999993
42
-0.41421356237308982
10
63.674999999999997
20
-62.4375
0
LWPOLYLINE
5
124
100
AcDbEntity
8
0
100
AcDbPolyline
90
8
70
1
43
0.0
10
171.92475000000002
20
-59.78125
10
171.92475000000002
20
-59.28125
42
0.41421356237309503
10
171.42475000000002
20
-58.78125
10
57.175250000000005
20
-58.78125
42
0.41421356237309503
10
56.675249999999991
20
-59.28125
10
56.675249999999991
20
-59.78125
42
0.41421356237308982
10
57.175249999999984
20
-60.28125
10
171.42475000000005
20
-60.28125
42
0.41421356237309503
0
LWPOLYLINE
5
125
100
AcDbEntity
8
0
100
AcDbPolyline
90
8
70
1
43
0.0
10
4.9062500000000036
20
-22.074999999999999
42
-0.41421356237309437
10
5.4062499999999991
20
-21.575000000000003
10
18.406249999999993
20
-21.574999999999996
42
-0.41421356237309764
10
18.906250000000004
20
-22.074999999999999
10
18.906250000000004
20
-35.075000000000003
42
-0.41421356237309631
10
18.40625
20
-35.575000000000003
10
5.4062499999999858
20
-35.575000000000003
42
-0.41421356237308721
10
4.90625
20
-35.075000000000003
0
LWPOLYLINE
5
126
100
AcDbEntity
8
0
100
AcDbPolyline
90
8
70
1
43
0.0
10
212.07499999999999
20
-3.0249999999999999
10
212.07499999999999
20
-16.024999999999999
42
0.41421356237312362
10
212.57499999999999
20
-16.525000000000006
10
225.57500000000002
20
-16.525000000000002
42
0.4142135623730781
10
226.07500000000002
20
-16.024999999999999
10
226.07500000000002
20
-3.0249999999999999
42
0.41421356237313273
10
225.57500000000002
20
-2.5249999999999995
10
212.57499999999999
20
-2.5249999999999999
42
0.41421356237304624
0
LWPOLYLINE
5
127
100
AcDbEntity
8
0
100
AcDbPolyline
90
8
70
1
43
0.0
10
173.97499999999997
20
-3.0249999999999999
42
-0.41421356237307749
10
174.47500000000002
20
-2.5249999999999999
10
187.47499999999999
20
-2.5249999999999995
42
-0.41421356237313273
10
187.97499999999999
20
-3.0249999999999999
10
187.97500000000002
20
-16.024999999999999
42
-0.4142135623730781
10
187.47499999999999
20
-16.525000000000002
10
174.47500000000002
20
-16.525000000000002
42
-0.41421356237313406
10
173.97500000000002
20
-16.024999999999999
0
LWPOLYLINE
5
128
100
AcDbEntity
8
0
100
AcDbPolyline
90
8
70
1
43
0.0
10
58.88750000000001
20
-21.575000000000003
42
-0.41421356237309503
10
59.387500000000003
20
-22.074999999999999
10
59.387500000000003
20
-35.075000000000003
42
-0.41421356237309503
10
58.88750000000001
20
-35.575000000000003
10
45.88750000000001
20
-35.575000000000003
42
-0.41421356237310025
10
45.387500000000003
20
-35.075000000000003
10
45.387500000000003
20
-22.074999999999999
42
-0.41421356237309503
10
45.887500000000003
20
-21.575000000000003
0
LWPOLYLINE
5
129
100
AcDbEntity
8
0
100
AcDbPolyline
90
8
70
1
43
0.0
10
168.42500000000001
20
-2.5249999999999817
42
-0.41421356237310153
10
168.92500000000001
20
-3.0249999999999999
10
168.92500000000001
20
-16.024999999999999
42
-0.41421356237304691
10
168.42500000000001
20
-16.525000000000002
10
155.42500000000001
20
-16.525000000000009
42
-0.41421356237307555
10
154.92500000000001
20
-16.024999999999999
10
154.92500000000001
20
-3.0249999999999999
42
-0.41421356237307422
10
155.42500000000001
20
-2.5249999999999999
0
LWPOLYLINE
5
130
100
AcDbEntity
8
0
100
AcDbPolyline
90
8
70
1
43
0.0
10
83.487499999999983
20
-22.074999999999999
42
-0.41421356237310802
10
83.987499999999997
20
-21.575000000000003
10
96.987500000000011
20
-21.574999999999992
42
-0.41421356237309503
10
97.487500000000011
20
-22.074999999999999
10
97.487500000000011
20
-35.075000000000003
42
-0.41421356237310542
10
96.987500000000011
20
-35.575000000000003
10
83.987499999999997
20
-35.575000000000003
42
-0.41421356237309243
10
83.487499999999983
20
-35.075000000000003
0
CIRCLE
5
131
100
AcDbEntity
8
0
100
AcDbCircle
10
226.57499999999999
20
3.974999999999993
30
0
40
1.2000000000000099
210
0
220
-0
230
1
0
LWPOLYLINE
5
132
100
AcDbEntity
8
0
100
AcDbPolyline
90
8
70
1
43
0.0
10
116.82500000000002
20
-3.0249999999999999
10
116.82500000000002
20
-16.024999999999999
42
0.41421356237309631
10
117.32500000000002
20
-16.525000000000006
10
130.32499999999999
20
-16.525000000000002
42
0.41421356237310675
10
130.82499999999999
20
-16.024999999999999
10
130.82499999999999
20
-3.0249999999999999
42
0.41421356237309437
10
130.32499999999999
20
-2.5249999999999995
10
117.32500000000002
20
-2.5249999999999999
42
0.41421356237310542
0
LWPOLYLINE
5
133
100
AcDbEntity
8
0
100
AcDbPolyline
90
8
70
1
43
0.0
10
9.6687500000000011
20
-41.125
42
-0.41421356237309503
10
10.168749999999999
20
-40.625
10
23.168749999999996
20
-40.625
42
-0.41421356237309764
10
23.668749999999999
20
-41.125
10
23.668749999999999
20
-54.125000000000007
42
-0.41421356237309503
10
23.168749999999999
20
-54.625
10
10.168749999999989
20
-54.625
42
-0.41421356237308721
10
9.6687499999999993
20
-54.125000000000007
0
LWPOLYLINE
5
134
100
AcDbEntity
8
0
100
AcDbPolyline
90
8
70
1
43
0.0
10
54.125000000000007
20
-2.525000000000003
42
-0.41421356237309437
10
54.625
20
-3.0249999999999999
10
54.625
20
-16.024999999999999
42
-0.4142135623730937
10
54.125000000000007
20
-16.525000000000002
10
41.125000000000007
20
-16.524999999999999
42
-0.41421356237310025
10
40.625
20
-16.024999999999999
10
40.625
20
-3.0249999999999999
42
-0.41421356237309404
10
41.125
20
-2.5249999999999999
0
LWPOLYLINE
5
135
100
AcDbEntity
8
0
100
AcDbPolyline
90
8
70
1
43
0.0
10
21.574999999999989
20
-3.0249999999999999
10
21.574999999999989
20
-16.024999999999999
42
0.4142135623730937
10
22.074999999999996
20
-16.524999999999999
10
35.075000000000003
20
-16.525000000000002
42
0.41421356237309503
10
35.57500000000001
20
-16.024999999999999
10
35.575000000000003
20
-3.0249999999999999
42
0.4142135623730957
10
35.075000000000003
20
-2.5249999999999995
10
22.074999999999999
20
-2.5249999999999999
42
0.41421356237309537
0
LWPOLYLINE
5
136
100
AcDbEntity
8
0
100
AcDbPolyline
90
8
70
1
43
0.0
10
193.02499999999998
20
-3.0249999999999999
42
-0.41421356237307749
10
193.52500000000003
20
-2.5249999999999999
10
206.52500000000003
20
-2.5249999999999817
42
-0.41421356237310153
10
207.02500000000003
20
-3.0249999999999999
10
207.02500000000003
20
-16.024999999999999
42
-0.41421356237304691
10
206.52500000000003
20
-16.525000000000002
10
193.52500000000003
20
-16.525000000000002
42
-0.41421356237313406
10
193.02500000000003
20
-16.024999999999999
0
LWPOLYLINE
5
137
100
AcDbEntity
8
0
100
AcDbPolyline
90
8
70
1
43
0.0
10
2.5249999999999999
20
-3.0249999999999999
42
-0.41421356237309437
10
3.0249999999999999
20
-2.5249999999999999
10
16.024999999999991
20
-2.5249999999999986
42
-0.41421356237309825
10
16.525000000000002
20
-3.0249999999999999
10
16.525000000000002
20
-16.024999999999999
42
-0.41421356237309243
10
16.024999999999999
20
-16.525000000000002
10
3.0249999999999844
20
-16.525000000000002
42
-0.4142135623730856
10
2.5249999999999999
20
-16.024999999999999
0
LWPOLYLINE
5
138
100
AcDbEntity
8
0
100
AcDbPolyline
90
8
70
1
43
0.0
10
59.675000000000004
20
-3.0249999999999999
42
-0.41421356237309664
10
60.174999999999997
20
-2.5249999999999999
10
73.174999999999983
20
-2.525000000000003
42
-0.41421356237309959
10
73.674999999999997
20
-3.0249999999999999
10
73.674999999999997
20
-16.024999999999999
42
-0.4142135623730937
10
73.174999999999997
20
-16.525000000000002
10
60.174999999999997
20
-16.525000000000002
42
-0.41421356237309764
10
59.675000000000004
20
-16.024999999999999
0
LWPOLYLINE
5
139
100
AcDbEntity
8
0
100
AcDbPolyline
90
8
70
1
43
0.0
10
26.337499999999999
20
-22.074999999999999
42
-0.41421356237309503
10
26.837499999999999
20
-21.575000000000003
10
39.837500000000006
20
-21.574999999999992
42
-0.41421356237310542
10
40.337500000000006
20
-22.074999999999999
10
40.337499999999991
20
-35.075000000000003
42
-0.41421356237311324
10
39.837499999999999
20
-35.575000000000003
10
26.837499999999999
20
-35.575000000000003
42
-0.41421356237309503
10
26.337499999999999
20
-35.075000000000003
0
LWPOLYLINE
5
140
100
AcDbEntity
8
0
100
AcDbPolyline
90
8
70
1
43
0.0
10
35.862500000000004
20
-41.125
42
-0.41421356237309503
10
36.362499999999997
20
-40.625
10
49.362500000000011
20
-40.625
42
-0.41421356237308982
10
49.862499999999997
20
-41.125
10
49.862499999999997
20
-54.125000000000007
42
-0.41421356237309503
10
49.362500000000004
20
-54.625
10
36.362500000000004
20
-54.625
42
-0.41421356237309764
10
35.862500000000004
20
-54.125000000000007
0
LWPOLYLINE
5
141
100
AcDbEntity
8
0
100
AcDbPolyline
90
8
70
1
43
0.0
10
135.08750000000001
20
-21.574999999999992
42
-0.41421356237307422
10
135.58750000000001
20
-22.074999999999999
10
135.58750000000001
20
-35.075000000000003
42
-0.41421356237310025
10
135.08750000000001
20
-35.575000000000003
10
122.08750000000002
20
-35.575000000000003
42
-0.41421356237309243
10
121.58750000000001
20
-35.075000000000003
10
121.58750000000001
20
-22.074999999999999
42
-0.41421356237310802
10
122.08750000000002
20
-21.575000000000003
0
CIRCLE
5
142
100
AcDbEntity
8
0
100
AcDbCircle
10
226.57499999999999
20
-84.9375
30
0
40
1.2000000000000099
210
0
220
-0
230
1
0
LWPOLYLINE
5
143
100
AcDbEntity
8
0
100
AcDbPolyline
90
8
70
1
43
0.0
10
64.437500000000014
20
-22.074999999999999
42
-0.41421356237309764
10
64.9375
20
-21.575000000000003
10
77.9375
20
-21.575000000000003
42
-0.41421356237310025
10
78.4375
20
-22.074999999999999
10
78.4375
20
-35.075000000000003
42
-0.41421356237309503
10
77.9375
20
-35.575000000000003
10
64.9375
20
-35.575000000000003
42
-0.41421356237309764
10
64.4375
20
-35.075000000000003
0
CIRCLE
5
144
100
AcDbEntity
8
0
100
AcDbCircle
10
2.0249999999999999
20
3.9750000000000001
30
0
40
1.1999999999999997
210
0
220
-0
230
1
0
LWPOLYLINE
5
145
100
AcDbEntity
8
0
100
AcDbPolyline
90
12
70
1
43
0.0
10
-1.9750000000000001
20
1.9749999999999999
42
-0.84303899710076657
10
5.7962361663282538
20
3.3083333333333331
42
0.31783724519578127
10
7.6818542494923747
20
1.9750000000000001
10
220.91814575050762
20
1.9749999999999996
42
0.31783724519578432
10
222.80376383367178
20
3.3083333333333451
42
-0.84303899710076491
10
230.57499999999999
20
1.9749999999999979
10
230.57500000000002
20
-82.937500000000014
42
-0.84303899710076713
10
222.80376383367172
20
-84.270833333333343
42
0.31783724519578183
10
220.91814575050762
20
-82.937500000000014
10
7.6818542494923827
20
-82.937500000000014
42
0.3178372451957826
10
5.7962361663282689
20
-84.270833333333343
42
-0.84303899710076735
10
-1.9750000000000156
20
-82.937500000000014
0
ENDSEC
0
SECTION
2
OBJECTS
0
DICTIONARY
5
C
100
AcDbDictionary
3
ACAD_GROUP
350
D
3
ACAD_MLINESTYLE
350
17
0
DICTIONARY
5
D
100
AcDbDictionary
0
DICTIONARY
5
1A
330
C
100
AcDbDictionary
0
DICTIONARY
5
17
100
AcDbDictionary
0
ENDSEC
0
EOF
